<svg width="152" height="30" viewBox="0 0 152 30" fill="none" xmlns="http://www.w3.org/2000/svg">
<path d="M16 8.91228C16.1511 9.5045 16.459 10.0451 16.8912 10.4773C17.3233 10.9095 17.8639 11.2173 18.4561 11.3684H22.3158L22.4912 11.4035V21.0877H24.8772V11.4386L25.1228 11.3333H28.9825C29.573 11.1788 30.1118 10.8698 30.5435 10.4382C30.9751 10.0065 31.2841 9.46776 31.4386 8.8772H16V8.91228ZM99.7193 8.91228H97.3333V21.1228H108.281C108.799 20.9267 109.262 20.6068 109.629 20.191C109.996 19.7752 110.256 19.276 110.386 18.7368H99.7544V8.8772L99.7193 8.91228ZM81.3684 11.2982C82.6316 10.9474 83.6842 9.96492 83.9649 8.8772L70.5965 8.91228V16.1404H81.5088V18.6667H72.9474C72.2937 18.8367 71.6836 19.1436 71.1573 19.567C70.6311 19.9904 70.2008 20.5207 69.8947 21.1228H83.8947V13.7544H72.9474V11.2982H81.3684ZM122.14 21.1228H124.491V16.2105H133.123V21.1228H135.474V13.7544H122.14V21.1228ZM45.9298 11.3333H55.0526C55.653 11.1913 56.2028 10.8872 56.6421 10.454C57.0814 10.0209 57.3933 9.47547 57.5439 8.8772L43.4737 8.8772C43.6213 9.47109 43.928 10.0135 44.3607 10.4463C44.7935 10.879 45.3359 11.1857 45.9298 11.3333ZM45.9298 16.1754H55.0526C55.653 16.0334 56.2028 15.7293 56.6421 15.2962C57.0814 14.863 57.3933 14.3176 57.5439 13.7193H43.4737C43.6213 14.3132 43.928 14.8556 44.3607 15.2884C44.7935 15.7211 45.3359 16.0278 45.9298 16.1754ZM45.9298 21.1228H55.0526C55.653 20.9808 56.2028 20.6766 56.6421 20.2435C57.0814 19.8104 57.3933 19.2649 57.5439 18.6667H43.4737C43.6213 19.2606 43.928 19.803 44.3607 20.2357C44.7935 20.6685 45.3359 20.9752 45.9298 21.1228ZM124.246 11.3333H133.368C133.962 11.1857 134.505 10.879 134.938 10.4463C135.37 10.0135 135.677 9.47109 135.825 8.8772L121.789 8.8772C121.937 9.47109 122.244 10.0135 122.677 10.4463C123.109 10.879 123.652 11.1857 124.246 11.3333Z" fill="white"/>
</svg>
